<svg xmlns="http://www.w3.org/2000/svg" xmlns:xlink="http://www.w3.org/1999/xlink" width="500" zoomAndPan="magnify" viewBox="0 0 375 374.999991" height="500" preserveAspectRatio="xMidYMid meet" version="1.0"><defs><clipPath id="75b7aa05a7"><path d="M 218 44.53125 L 364.691406 44.53125 L 364.691406 337.78125 L 218 337.78125 Z M 218 44.53125 " clip-rule="nonzero"/></clipPath><clipPath id="b2e68c419c"><path d="M 10 44.53125 L 157 44.53125 L 157 337.78125 L 10 337.78125 Z M 10 44.53125 " clip-rule="nonzero"/></clipPath></defs><g clip-path="url(#75b7aa05a7)"><path fill="#8c52ff" d="M 218.355469 44.5 L 218.355469 104.414062 L 304.917969 190.976562 L 218.355469 277.535156 L 218.355469 337.449219 L 364.832031 190.976562 Z M 218.355469 44.5 " fill-opacity="1" fill-rule="nonzero"/></g><g clip-path="url(#b2e68c419c)"><path fill="#8c52ff" d="M 156.722656 104.414062 L 156.722656 44.5 L 10.246094 190.976562 L 156.722656 337.449219 L 156.722656 277.535156 L 70.160156 190.976562 Z M 156.722656 104.414062 " fill-opacity="1" fill-rule="nonzero"/></g><path fill="#8c52ff" d="M 116 190.976562 L 187.535156 119.441406 L 259.070312 190.976562 L 187.535156 262.511719 Z M 116 190.976562 " fill-opacity="1" fill-rule="nonzero"/></svg>