<svg xmlns="http://www.w3.org/2000/svg" xmlns:xlink="http://www.w3.org/1999/xlink" width="500" zoomAndPan="magnify" viewBox="0 0 375 374.999991" height="500" preserveAspectRatio="xMidYMid meet" version="1.0"><defs><g/><clipPath id="55691ce108"><path d="M 161 151 L 191 151 L 191 261 L 161 261 Z M 161 151 " clip-rule="nonzero"/></clipPath><clipPath id="8f2467fafa"><path d="M 177.34375 151.957031 L 190.675781 153.886719 L 175.199219 260.910156 L 161.871094 258.980469 Z M 177.34375 151.957031 " clip-rule="nonzero"/></clipPath><clipPath id="dde43be2f9"><path d="M 175 57 L 205 57 L 205 167 L 175 167 Z M 175 57 " clip-rule="nonzero"/></clipPath><clipPath id="b35daef11b"><path d="M 190.828125 57.929688 L 204.164062 59.816406 L 189.023438 166.890625 L 175.683594 165.003906 Z M 190.828125 57.929688 " clip-rule="nonzero"/></clipPath></defs><g fill="#ffffff" fill-opacity="1"><g transform="translate(19.431115, 327.77634)"><g><path d="M 46.640625 0 L 5.5 0 L 5.5 -61.6875 L 46.640625 -61.6875 L 46.640625 -51.25 L 17.140625 -51.25 L 17.140625 -36.0625 L 43.578125 -36.0625 L 43.578125 -25.703125 L 17.140625 -25.703125 L 17.140625 -10.421875 L 46.640625 -10.421875 Z M 46.640625 0 "/></g></g></g><g fill="#ffffff" fill-opacity="1"><g transform="translate(69.628164, 327.77634)"><g><path d="M 22.3125 0 L 15.28125 0 C 11.9375 0 9.347656 -0.78125 7.515625 -2.34375 C 5.679688 -3.90625 4.765625 -6.4375 4.765625 -9.9375 L 4.765625 -61.6875 L 15.6875 -61.6875 L 15.6875 -13.171875 C 15.6875 -11.660156 15.96875 -10.59375 16.53125 -9.96875 C 17.09375 -9.351562 18.050781 -9.046875 19.40625 -9.046875 L 22.3125 -9.046875 Z M 22.3125 0 "/></g></g></g><g fill="#ffffff" fill-opacity="1"><g transform="translate(94.039625, 327.77634)"><g><path d="M 10.421875 -50.359375 C 8.597656 -50.359375 7.023438 -50.925781 5.703125 -52.0625 C 4.378906 -53.195312 3.71875 -54.707031 3.71875 -56.59375 C 3.71875 -58.425781 4.378906 -59.921875 5.703125 -61.078125 C 7.023438 -62.234375 8.597656 -62.8125 10.421875 -62.8125 C 12.253906 -62.8125 13.832031 -62.234375 15.15625 -61.078125 C 16.476562 -59.921875 17.140625 -58.425781 17.140625 -56.59375 C 17.140625 -54.707031 16.476562 -53.195312 15.15625 -52.0625 C 13.832031 -50.925781 12.253906 -50.359375 10.421875 -50.359375 Z M 15.84375 0 L 4.9375 0 L 4.9375 -45.359375 L 15.84375 -45.359375 Z M 15.84375 0 "/></g></g></g><g fill="#ffffff" fill-opacity="1"><g transform="translate(114.894448, 327.77634)"><g><path d="M 28.140625 0 L 19.15625 0 C 15.8125 0 13.207031 -0.78125 11.34375 -2.34375 C 9.488281 -3.90625 8.5625 -6.4375 8.5625 -9.9375 L 8.5625 -36.625 L 1.859375 -36.625 L 1.859375 -45.359375 L 8.5625 -45.359375 L 8.5625 -61.6875 L 19.484375 -61.6875 L 19.484375 -45.359375 L 28.21875 -45.359375 L 28.21875 -36.625 L 19.484375 -36.625 L 19.484375 -13.265625 C 19.484375 -12.078125 19.6875 -11.078125 20.09375 -10.265625 C 20.5 -9.453125 21.535156 -9.046875 23.203125 -9.046875 L 28.140625 -9.046875 Z M 28.140625 0 "/></g></g></g><g fill="#ffffff" fill-opacity="1"><g transform="translate(145.853363, 327.77634)"><g><path d="M 26.1875 0.890625 C 21.550781 0.890625 17.492188 -0.117188 14.015625 -2.140625 C 10.546875 -4.160156 7.851562 -6.921875 5.9375 -10.421875 C 4.03125 -13.929688 3.078125 -17.921875 3.078125 -22.390625 C 3.078125 -25.359375 3.535156 -28.269531 4.453125 -31.125 C 5.367188 -33.976562 6.769531 -36.550781 8.65625 -38.84375 C 10.539062 -41.132812 12.910156 -42.953125 15.765625 -44.296875 C 18.617188 -45.648438 21.988281 -46.328125 25.875 -46.328125 C 28.78125 -46.328125 31.59375 -45.867188 34.3125 -44.953125 C 37.039062 -44.035156 39.484375 -42.617188 41.640625 -40.703125 C 43.796875 -38.785156 45.503906 -36.34375 46.765625 -33.375 C 48.035156 -30.414062 48.671875 -26.890625 48.671875 -22.796875 L 48.671875 -20.453125 L 14.390625 -20.453125 C 14.492188 -19.484375 14.707031 -18.523438 15.03125 -17.578125 C 15.351562 -16.640625 15.707031 -15.820312 16.09375 -15.125 C 17.164062 -13.019531 18.601562 -11.382812 20.40625 -10.21875 C 22.21875 -9.0625 24.28125 -8.484375 26.59375 -8.484375 C 29.1875 -8.484375 31.359375 -9.15625 33.109375 -10.5 C 34.859375 -11.851562 36.082031 -13.445312 36.78125 -15.28125 L 47.9375 -15.28125 C 47.070312 -12.363281 45.695312 -9.679688 43.8125 -7.234375 C 41.925781 -4.785156 39.523438 -2.816406 36.609375 -1.328125 C 33.703125 0.148438 30.226562 0.890625 26.1875 0.890625 Z M 14.875 -28.625 L 37.515625 -28.625 C 37.460938 -29.21875 37.3125 -29.890625 37.0625 -30.640625 C 36.820312 -31.390625 36.40625 -32.117188 35.8125 -32.828125 C 34.789062 -34.441406 33.429688 -35.648438 31.734375 -36.453125 C 30.035156 -37.265625 28.1875 -37.671875 26.1875 -37.671875 C 24.195312 -37.671875 22.378906 -37.265625 20.734375 -36.453125 C 19.085938 -35.648438 17.726562 -34.441406 16.65625 -32.828125 C 16.0625 -32.117188 15.640625 -31.390625 15.390625 -30.640625 C 15.148438 -29.890625 14.976562 -29.21875 14.875 -28.625 Z M 14.875 -28.625 "/></g></g></g><g fill="#ff3131" fill-opacity="1"><g transform="translate(197.593196, 327.77634)"><g><path d="M 23.4375 0 L 5.5 0 L 5.5 -61.6875 L 23.4375 -61.6875 C 33.894531 -61.6875 41.882812 -59.015625 47.40625 -53.671875 C 52.9375 -48.335938 55.703125 -40.710938 55.703125 -30.796875 C 55.703125 -20.929688 52.925781 -13.332031 47.375 -8 C 41.820312 -2.664062 33.84375 0 23.4375 0 Z M 17.140625 -51.25 L 17.140625 -10.421875 L 23.28125 -10.421875 C 27.375 -10.421875 30.984375 -11.054688 34.109375 -12.328125 C 37.242188 -13.597656 39.6875 -15.726562 41.4375 -18.71875 C 43.1875 -21.707031 44.0625 -25.734375 44.0625 -30.796875 C 44.0625 -35.597656 43.195312 -39.492188 41.46875 -42.484375 C 39.75 -45.472656 37.335938 -47.679688 34.234375 -49.109375 C 31.140625 -50.535156 27.515625 -51.25 23.359375 -51.25 Z M 17.140625 -51.25 "/></g></g></g><g fill="#ff3131" fill-opacity="1"><g transform="translate(256.439357, 327.77634)"><g><path d="M 26.1875 0.890625 C 21.550781 0.890625 17.492188 -0.117188 14.015625 -2.140625 C 10.546875 -4.160156 7.851562 -6.921875 5.9375 -10.421875 C 4.03125 -13.929688 3.078125 -17.921875 3.078125 -22.390625 C 3.078125 -25.359375 3.535156 -28.269531 4.453125 -31.125 C 5.367188 -33.976562 6.769531 -36.550781 8.65625 -38.84375 C 10.539062 -41.132812 12.910156 -42.953125 15.765625 -44.296875 C 18.617188 -45.648438 21.988281 -46.328125 25.875 -46.328125 C 28.78125 -46.328125 31.59375 -45.867188 34.3125 -44.953125 C 37.039062 -44.035156 39.484375 -42.617188 41.640625 -40.703125 C 43.796875 -38.785156 45.503906 -36.34375 46.765625 -33.375 C 48.035156 -30.414062 48.671875 -26.890625 48.671875 -22.796875 L 48.671875 -20.453125 L 14.390625 -20.453125 C 14.492188 -19.484375 14.707031 -18.523438 15.03125 -17.578125 C 15.351562 -16.640625 15.707031 -15.820312 16.09375 -15.125 C 17.164062 -13.019531 18.601562 -11.382812 20.40625 -10.21875 C 22.21875 -9.0625 24.28125 -8.484375 26.59375 -8.484375 C 29.1875 -8.484375 31.359375 -9.15625 33.109375 -10.5 C 34.859375 -11.851562 36.082031 -13.445312 36.78125 -15.28125 L 47.9375 -15.28125 C 47.070312 -12.363281 45.695312 -9.679688 43.8125 -7.234375 C 41.925781 -4.785156 39.523438 -2.816406 36.609375 -1.328125 C 33.703125 0.148438 30.226562 0.890625 26.1875 0.890625 Z M 14.875 -28.625 L 37.515625 -28.625 C 37.460938 -29.21875 37.3125 -29.890625 37.0625 -30.640625 C 36.820312 -31.390625 36.40625 -32.117188 35.8125 -32.828125 C 34.789062 -34.441406 33.429688 -35.648438 31.734375 -36.453125 C 30.035156 -37.265625 28.1875 -37.671875 26.1875 -37.671875 C 24.195312 -37.671875 22.378906 -37.265625 20.734375 -36.453125 C 19.085938 -35.648438 17.726562 -34.441406 16.65625 -32.828125 C 16.0625 -32.117188 15.640625 -31.390625 15.390625 -30.640625 C 15.148438 -29.890625 14.976562 -29.21875 14.875 -28.625 Z M 14.875 -28.625 "/></g></g></g><g fill="#ff3131" fill-opacity="1"><g transform="translate(308.172241, 327.77634)"><g><path d="M 26.359375 0 L 17.703125 0 L 0.96875 -45.359375 L 12.609375 -45.359375 L 21.984375 -16.734375 L 31.53125 -45.359375 L 43.171875 -45.359375 Z M 26.359375 0 "/></g></g></g><g clip-path="url(#55691ce108)"><g clip-path="url(#8f2467fafa)"><path fill="#ffffff" d="M 177.34375 151.957031 L 190.675781 153.886719 L 175.203125 260.890625 L 161.871094 258.964844 Z M 177.34375 151.957031 " fill-opacity="1" fill-rule="nonzero"/></g></g><g fill="#ff3131" fill-opacity="1"><g transform="translate(192.175701, 265.863656)"><g><path d="M 153.875 -81.78125 L 13.53125 -30.890625 L 13.53125 -67.671875 L 112.6875 -102.09375 L 13.53125 -136.21875 L 13.53125 -172.984375 L 153.875 -122.390625 Z M 153.875 -81.78125 "/></g></g></g><g fill="#ffffff" fill-opacity="1"><g transform="translate(7.500004, 264.832379)"><g><path d="M 151.796875 -67.65625 L 151.796875 -30.890625 L 11.46875 -81.78125 L 11.46875 -122.375 L 151.796875 -172.984375 L 151.796875 -136.203125 L 52.65625 -102.078125 Z M 151.796875 -67.65625 "/></g></g></g><g clip-path="url(#dde43be2f9)"><g clip-path="url(#b35daef11b)"><path fill="#ff3131" d="M 190.828125 57.929688 L 204.164062 59.816406 L 189.023438 166.871094 L 175.6875 164.984375 Z M 190.828125 57.929688 " fill-opacity="1" fill-rule="nonzero"/></g></g></svg>